<svg xmlns="http://www.w3.org/2000/svg" version="1.1" xmlns:xlink="http://www.w3.org/1999/xlink" xmlns:svgjs="http://svgjs.dev/svgjs" width="1000" height="1000" viewBox="0 0 1000 1000"><rect width="1000" height="1000" fill="#77d4fc"></rect><g transform="matrix(0.7,0,0,0.7,149.57575757575756,429.38390735995864)"><svg viewBox="0 0 396 80" data-background-color="#77d4fc" preserveAspectRatio="xMidYMid meet" height="202" width="1000" xmlns="http://www.w3.org/2000/svg" xmlns:xlink="http://www.w3.org/1999/xlink"><g id="tight-bounds" transform="matrix(1,0,0,1,0.2400000000000091,-0.047472339439110556)"><svg viewBox="0 0 395.52 80.0949446788782" height="80.0949446788782" width="395.52"><g><svg viewBox="0 0 507.83405131533925 102.83914908513525" height="80.0949446788782" width="395.52"><g transform="matrix(1,0,0,1,0,14.212935944472385)"><svg viewBox="0 0 395.5199999999999 74.41327719619048" height="74.41327719619048" width="395.5199999999999"><g><svg viewBox="0 0 395.5199999999999 74.41327719619048" height="74.41327719619048" width="395.5199999999999"><g><svg viewBox="0 0 395.5199999999999 40.134965986394555" height="40.134965986394555" width="395.5199999999999"><g transform="matrix(1,0,0,1,0,0)"><svg width="395.5199999999999" viewBox="0 -35.79999923706055 352.7799987792969 35.79999923706055" height="40.134965986394555" data-palette-color="#000000"><path d="M25.25-2.15L31.5-2.15 31.5 0 0 0 0-2.15 6.4-2.15Q4-3.4 2-5.25L2-5.25 5.7-9.7Q11-5.1 16.7-5.1L16.7-5.1Q19.55-5.1 21.23-6.33 22.9-7.55 22.9-9.58 22.9-11.6 21.33-12.73 19.75-13.85 15.9-14.78 12.05-15.7 10.05-16.48 8.05-17.25 6.5-18.5L6.5-18.5Q3.4-20.85 3.4-25.7 3.4-30.55 6.93-33.18 10.45-35.8 15.65-35.8L15.65-35.8Q19-35.8 22.3-34.7 25.6-33.6 28-31.6L28-31.6 24.85-27.15Q23.3-28.55 20.65-29.45 18-30.35 15.43-30.35 12.85-30.35 11.2-29.3 9.55-28.25 9.55-26.13 9.55-24 11.2-22.88 12.85-21.75 18.23-20.45 23.6-19.15 26.33-16.8 29.05-14.45 29.05-10.2L29.05-10.2Q29.05-5.05 25.25-2.15L25.25-2.15ZM70.35 0L70.35-2.15 65.5-2.15 65.5-34.95 59.6-34.95 59.6-19.8 42.25-19.8 42.25-34.95 36.35-34.95 36.35 0 42.25 0 42.25-14.3 59.6-14.3 59.6 0 70.35 0ZM31.5-2.15L36.35-2.15 36.35 0 31.5 0 31.5-2.15ZM106.5-2.15L112.3-2.15 112.3 0 101.14 0 97.64-7.95 80.14-7.95 76.64 0 65.5 0 65.5-2.15 71.3-2.15 85.75-34.95 92.05-34.95 106.5-2.15ZM82.55-13.4L95.25-13.4 88.89-27.8 82.55-13.4ZM107.44-2.15L112.29-2.15 112.29-34.95 118.19-34.95 138.49-8.85 138.49-34.95 144.39-34.95 144.39-2.15 149.24-2.15 149.24 0 137.99 0 118.19-25.5 118.19 0 107.44 0 107.44-2.15ZM193.54-2.15L198.39-2.15 198.39 0 187.64 0 187.64-27.3 175.44-3.05 172.14-3.05 159.99-27.3 159.99 0 149.24 0 149.24-2.15 154.09-2.15 154.09-34.95 163.29-34.95 173.84-13 184.39-34.95 193.54-34.95 193.54-2.15ZM226.39-2.15L236.79-2.15 236.79 0 198.39 0 198.39-2.15 208.74-2.15Q202.79-6.3 202.79-15.3L202.79-15.3 202.79-34.95 208.69-34.95 208.69-15.55Q208.69-10.75 211.09-7.95 213.49-5.15 217.59-5.15 221.69-5.15 224.09-7.95 226.49-10.75 226.49-15.55L226.49-15.55 226.49-34.95 232.39-34.95 232.39-15.3Q232.39-6.25 226.39-2.15L226.39-2.15ZM236.79-2.15L241.64-2.15 241.64-34.95 247.54-34.95 247.54-17.9 263.54-34.95 271.04-34.95 256.99-19.65 269.69-2.1 269.69-2.15 274.54-2.15 274.54 0 264.24 0 252.64-15.3 247.54-9.8 247.54 0 236.79 0 236.79-2.15ZM310.83 0L310.83-2.15 305.98-2.15 305.98-34.95 300.08-34.95 300.08-19.8 282.73-19.8 282.73-34.95 276.83-34.95 276.83 0 282.73 0 282.73-14.3 300.08-14.3 300.08 0 310.83 0ZM271.98-2.15L276.83-2.15 276.83 0 271.98 0 271.98-2.15ZM346.98-2.15L352.78-2.15 352.78 0 341.63 0 338.13-7.95 320.63-7.95 317.13 0 305.98 0 305.98-2.15 311.78-2.15 326.23-34.95 332.53-34.95 346.98-2.15ZM323.03-13.4L335.73-13.4 329.38-27.8 323.03-13.4Z" opacity="1" transform="matrix(1,0,0,1,0,0)" fill="#000000" class="undefined-text-0" data-fill-palette-color="primary" id="text-0"></path></svg></g></svg></g><g transform="matrix(1,0,0,1,202.07264133117351,49.609868216598635)"><svg viewBox="0 0 193.4473586688264 24.803408979591836" height="24.803408979591836" width="193.4473586688264"><g transform="matrix(1,0,0,1,0,0)"><svg width="193.4473586688264" viewBox="-1 -36.75 294.0007629394531 37.70000076293945" height="24.803408979591836" data-palette-color="#000000"><path d="M7.75-20.3L13.65-24.05 15.55-24.25Q19.5-24.25 22.13-20.88 24.75-17.5 24.75-12.5L24.75-12.5Q24.75-6.7 21.1-2.88 17.45 0.95 11.85 0.95L11.85 0.95Q8 0.95 3.3-1.2L3.3-1.2 3.3-33.15-0.4-32.85-1-35.2Q2.35-36.65 5.8-36.75L5.8-36.75 7.75-34.95 7.75-20.3ZM13.85-2.35L15.8-2.5Q17.75-3.7 18.9-6.2 20.05-8.7 20.05-11.5L20.05-11.5Q20.05-15.05 18.3-17.6 16.55-20.15 13.9-20.15L13.9-20.15Q11.5-20.15 7.75-17.65L7.75-17.65 7.75-4.2Q10.3-2.35 13.85-2.35L13.85-2.35ZM53.15-3.75L53.9-1.55 48.85 0.75Q48.05 0.65 46.87-0.5 45.7-1.65 45.25-2.95L45.25-2.95Q42.75-1.35 39.95-0.3 37.15 0.75 35.6 0.75L35.6 0.75Q32.85 0.15 31.2-2.5L31.2-2.5Q30.4-3.65 30.35-7.05L30.35-7.05 30.35-20.6 26.6-20.3 26-22.65Q29.35-24.1 32.8-24.2L32.8-24.2 34.8-22.45 34.8-7.4Q34.95-3.1 38.1-3.1L38.1-3.1Q40.85-3.1 45.1-5.7L45.1-5.7 45.1-20.6 41.35-20.3 40.75-22.65Q44.1-24.1 47.55-24.2L47.55-24.2 49.55-22.45 49.55-4.3Q49.55-3.3 50.85-3.3L50.85-3.3Q51.6-3.3 53.15-3.75L53.15-3.75ZM61.95-28.65L61.95-28.65Q59.5-29.7 58.1-31.65L58.1-31.65Q59.4-34.35 61.15-35.45L61.15-35.45Q63.4-34.55 64.9-32.45L64.9-32.45Q64.09-30.15 61.95-28.65ZM63.95-22.45L63.95-3.2Q66.45-2.9 67.55-2.4L67.55-2.4 67.25 0 55.95 0 55.7-1.65Q56.9-2.25 59.5-3.05L59.5-3.05 59.5-20.6 55.75-20.3 55.15-22.65Q58.5-24.1 61.95-24.2L61.95-24.2 63.95-22.45ZM78.09-35L78.09-3.2Q80.59-2.9 81.69-2.4L81.69-2.4 81.39 0 70.09 0 69.84-1.65Q71.04-2.25 73.64-3.05L73.64-3.05 73.64-33.15 69.89-32.85 69.29-35.2Q72.64-36.65 76.09-36.75L76.09-36.75 78.09-35ZM108.49-3.75L109.24-1.55 104.19 0.75Q103.39 0.65 102.22-0.48 101.04-1.6 100.59-2.9L100.59-2.9 95.14 0.75Q90.19 0.8 86.94-2.8 83.69-6.4 83.69-11.65L83.69-11.65Q83.69-17.1 87.37-20.8 91.04-24.5 96.29-24.5L96.29-24.5Q98.44-24.5 100.44-23.75L100.44-23.75 100.44-33.15 96.69-32.85 96.09-35.2Q99.44-36.65 102.89-36.75L102.89-36.75 104.89-34.95 104.89-4.3Q104.89-3.3 106.19-3.3L106.19-3.3Q106.94-3.3 108.49-3.75L108.49-3.75ZM88.39-12.2L88.39-12.2Q88.39-8.4 90.27-5.88 92.14-3.35 95.19-3.35L95.19-3.35Q97.54-3.35 100.44-5.1L100.44-5.1 100.44-19Q97.59-21.2 94.04-21.2L94.04-21.2 91.94-21Q88.39-17.85 88.39-12.2ZM130.54-28.65L130.54-28.65Q128.09-29.7 126.69-31.65L126.69-31.65Q127.99-34.35 129.74-35.45L129.74-35.45Q131.99-34.55 133.49-32.45L133.49-32.45Q132.69-30.15 130.54-28.65ZM132.54-22.45L132.54-3.2Q135.04-2.9 136.14-2.4L136.14-2.4 135.84 0 124.54 0 124.29-1.65Q125.49-2.25 128.09-3.05L128.09-3.05 128.09-20.6 124.34-20.3 123.74-22.65Q127.09-24.1 130.54-24.2L130.54-24.2 132.54-22.45ZM147.68-3.4L147.68-3.4Q149.13-3.4 152.28-4.55L152.28-4.55 153.13-2.25 146.63 0.75Q144.93 0.85 143.26-0.53 141.58-1.9 141.58-3.5L141.58-3.5 141.58-19.65 138.48-19.6 138.13-22Q139.73-22.7 141.68-23.15L141.68-23.15 143.68-29.45 146.03-29.45 146.03-23.4 153.03-23.4 153.23-21.95 150.88-19.55 146.03-19.55 146.03-6.1Q146.03-4.55 146.38-3.98 146.73-3.4 147.68-3.4ZM175.28-20.3L181.18-24.05 183.08-24.25Q187.03-24.25 189.65-20.88 192.28-17.5 192.28-12.5L192.28-12.5Q192.28-6.7 188.63-2.88 184.98 0.95 179.38 0.95L179.38 0.95Q175.53 0.95 170.83-1.2L170.83-1.2 170.83-33.15 167.13-32.85 166.53-35.2Q169.88-36.65 173.33-36.75L173.33-36.75 175.28-34.95 175.28-20.3ZM181.38-2.35L183.33-2.5Q185.28-3.7 186.43-6.2 187.58-8.7 187.58-11.5L187.58-11.5Q187.58-15.05 185.83-17.6 184.08-20.15 181.43-20.15L181.43-20.15Q179.03-20.15 175.28-17.65L175.28-17.65 175.28-4.2Q177.83-2.35 181.38-2.35L181.38-2.35ZM212.08-12.85L199.23-13.1Q199.23-8.15 201.5-5.6 203.78-3.05 207.43-3.05L207.43-3.05Q210.13-3.05 213.83-4.7L213.83-4.7 214.58-2.55 206.78 0.75Q201.28 0.75 197.9-2.63 194.53-6 194.53-11.3L194.53-11.3Q194.53-16.7 197.85-20.55 201.18-24.4 205.98-24.4L205.98-24.4Q208.58-24.4 210.65-23.25 212.73-22.1 213.85-20.1 214.98-18.1 214.93-15.65L214.93-15.65 212.08-12.85ZM203.48-21.35L203.48-21.35Q200.63-19.85 199.63-15.75L199.63-15.75 210.58-16.25Q210.08-18.65 208.1-20.1 206.13-21.55 203.48-21.35ZM226.62-3.4L226.62-3.4Q228.07-3.4 231.22-4.55L231.22-4.55 232.07-2.25 225.57 0.75Q223.87 0.85 222.2-0.53 220.52-1.9 220.52-3.5L220.52-3.5 220.52-19.65 217.42-19.6 217.07-22Q218.67-22.7 220.62-23.15L220.62-23.15 222.62-29.45 224.97-29.45 224.97-23.4 231.97-23.4 232.17-21.95 229.82-19.55 224.97-19.55 224.97-6.1Q224.97-4.55 225.32-3.98 225.67-3.4 226.62-3.4ZM243.77-3.4L243.77-3.4Q245.22-3.4 248.37-4.55L248.37-4.55 249.22-2.25 242.72 0.75Q241.02 0.85 239.35-0.53 237.67-1.9 237.67-3.5L237.67-3.5 237.67-19.65 234.57-19.6 234.22-22Q235.82-22.7 237.77-23.15L237.77-23.15 239.77-29.45 242.12-29.45 242.12-23.4 249.12-23.4 249.32-21.95 246.97-19.55 242.12-19.55 242.12-6.1Q242.12-4.55 242.47-3.98 242.82-3.4 243.77-3.4ZM268.92-12.85L256.07-13.1Q256.07-8.15 258.34-5.6 260.62-3.05 264.27-3.05L264.27-3.05Q266.97-3.05 270.67-4.7L270.67-4.7 271.42-2.55 263.62 0.75Q258.12 0.75 254.74-2.63 251.37-6 251.37-11.3L251.37-11.3Q251.37-16.7 254.69-20.55 258.02-24.4 262.82-24.4L262.82-24.4Q265.42-24.4 267.49-23.25 269.57-22.1 270.69-20.1 271.82-18.1 271.77-15.65L271.77-15.65 268.92-12.85ZM260.32-21.35L260.32-21.35Q257.47-19.85 256.47-15.75L256.47-15.75 267.42-16.25Q266.92-18.65 264.94-20.1 262.97-21.55 260.32-21.35ZM292.97-23.15L292.97-23.15Q293.17-19.45 292.07-15.05L292.07-15.05 289.37-15.05 288.82-20.55Q284.77-18.3 281.97-14.6L281.97-14.6 281.97-3.3Q285.62-3.05 287.12-2.4L287.12-2.4 286.82 0 274.12 0 273.87-1.65 277.52-3 277.52-20.6 273.77-20.3 273.17-22.65Q276.52-24.1 279.97-24.2L279.97-24.2 281.97-22.45 281.97-17.9 287.22-23.5Q288.67-24.1 289.87-24.1L289.87-24.1Q291.47-24.1 292.97-23.15Z" opacity="1" transform="matrix(1,0,0,1,0,0)" fill="#000000" class="undefined-text-1" data-fill-palette-color="secondary" id="text-1"></path></svg></g></svg></g></svg></g></svg></g><g transform="matrix(1,0,0,1,404.994902230204,0)"><svg viewBox="0 0 102.83914908513525 102.83914908513525" height="102.83914908513525" width="102.83914908513525"><g data-palette-color="#000000"><rect width="28.109367416603636" height="102.83914908513525" fill="#000000" stroke="transparent" data-fill-palette-color="accent" x="0" fill-opacity="1"></rect><rect width="28.109367416603636" height="102.83914908513525" fill="#000000" stroke="transparent" data-fill-palette-color="accent" x="34.27971636171175" fill-opacity="0.75"></rect><rect width="28.109367416603636" height="102.83914908513525" fill="#000000" stroke="transparent" data-fill-palette-color="accent" x="68.5594327234235" fill-opacity="0.5"></rect></g></svg></g></svg></g><defs></defs></svg><rect width="395.52" height="80.0949446788782" fill="none" stroke="none" visibility="hidden"></rect></g></svg></g></svg>